<svg width="14" height="14" viewBox="0 0 14 14" fill="none" xmlns="http://www.w3.org/2000/svg">
<path d="M13.8714 1.98433L12.0153 0.128235C11.8444 -0.0426636 11.5675 -0.0426636 11.3966 0.128235L10.7778 0.74675C10.6069 0.917758 10.6068 1.19464 10.7777 1.36554L8.6824 3.46089C7.40736 2.92085 5.8824 3.16695 4.84333 4.20601L0.512085 8.53726C-0.171509 9.22085 -0.171509 10.3285 0.512085 11.0121L2.98697 13.4873C3.67056 14.1709 4.77826 14.1709 5.46185 13.4873L9.7931 9.15605C10.8322 8.11699 11.0783 6.5923 10.5382 5.31698L12.6336 3.22163C12.8045 3.39253 13.0847 3.39253 13.2556 3.22163L13.8744 2.60284C14.041 2.43222 14.041 2.15523 13.8714 1.98433ZM4.90269 11.5719L2.4278 9.09698L5.76374 5.76105L8.23862 8.2362L4.90269 11.5719Z" fill="white"/>
</svg>
