<svg width="9" height="14" viewBox="0 0 9 14" fill="none" xmlns="http://www.w3.org/2000/svg">
<path d="M6.52504 12.6875H5.39976V9.48008C7.3266 9.04586 8.71851 7.29641 8.53288 5.26641L8.08598 0.396484C8.06629 0.170898 7.87223 0 7.64441 0H1.35651C1.12785 0 0.934353 0.170898 0.913259 0.396484L0.466915 5.26641C0.280559 7.29668 1.67292 9.04531 3.60004 9.48281V12.6875H2.47448C1.85207 12.6875 1.3492 13.1764 1.3492 13.7812C1.3492 13.9009 1.45118 14 1.57425 14H7.42425C7.54733 14 7.64931 13.9009 7.64931 13.7812C7.65004 13.177 7.1466 12.6875 6.52504 12.6875ZM2.18592 1.3125H6.81529L7.01441 3.5H1.9851L2.18592 1.3125Z" fill="white"/>
</svg>
